<?xml version="1.0" encoding="UTF-8"?>
<svg id="Layer_1" xmlns="http://www.w3.org/2000/svg" version="1.1" viewBox="0 0 78.88 33.33">
  <!-- Generator: Adobe Illustrator 29.3.1, SVG Export Plug-In . SVG Version: 2.1.0 Build 151)  -->
  <defs>
    <style>
      .st0 {
        fill: #9e1f63;
      }
    </style>
  </defs>
  <path class="st0" d="M8.65,17.65c0-7.78,5.15-12.3,11.07-12.3,3.03,0,5.48,1.43,7.06,3.04l-2.8,3.4c-1.18-1.1-2.44-1.87-4.14-1.87-3.22,0-5.76,2.84-5.76,7.54s2.24,7.62,5.67,7.62c1.93,0,3.44-.95,4.59-2.19l2.8,3.33c-1.95,2.27-4.54,3.44-7.58,3.44-5.95,0-10.92-4.12-10.92-12.03Z"/>
  <path class="st0" d="M30.71,5.78h8.06c5.16,0,9.33,1.85,9.33,7.55s-4.21,7.95-9.18,7.95h-2.9v7.96h-5.3V5.78ZM38.6,17.07c2.92,0,4.3-1.3,4.3-3.74s-1.57-3.34-4.44-3.34h-2.44v7.08h2.59Z"/>
  <path class="st0" d="M52.17,5.78h14.7v4.45h-9.4v4.71h8v4.45h-8v5.41h9.76v4.45h-15.06V5.78Z"/>
</svg>